<svg xmlns="http://www.w3.org/2000/svg" width='1470' height='420'>	<image href="test/textures/Wall.jpg" width="70" height="70" x="0" y="140"/>	<image href="test/textures/Free.jpg" width="70" height="70" x="70" y="140"/>	<image href="test/textures/Monster1.jpg" width="70" height="70" x="140" y="140"/>	<image href="test/textures/Free.jpg" width="70" height="70" x="210" y="140"/>	<image href="test/textures/Free.jpg" width="70" height="70" x="280" y="140"/>	<image href="test/textures/Wall.jpg" width="70" height="70" x="0" y="210"/>	<image href="test/textures/Free.jpg" width="70" height="70" x="70" y="210"/>	<image href="test/textures/Free.jpg" width="70" height="70" x="140" y="210"/>	<image href="test/textures/Free.jpg" width="70" height="70" x="210" y="210"/>	<image href="test/textures/Monster1.jpg" width="70" height="70" x="280" y="210"/>	<image href="test/textures/Wall.jpg" width="70" height="70" x="0" y="280"/>	<image href="test/textures/Free.jpg" width="70" height="70" x="70" y="280"/>	<image href="test/textures/Hero.jpg" width="70" height="70" x="140" y="280"/>	<image href="test/textures/Free.jpg" width="70" height="70" x="210" y="280"/>	<image href="test/textures/Free.jpg" width="70" height="70" x="280" y="280"/>	<image href="test/textures/Wall.jpg" width="70" height="70" x="0" y="350"/>	<image href="test/textures/Wall.jpg" width="70" height="70" x="70" y="350"/>	<image href="test/textures/Wall.jpg" width="70" height="70" x="140" y="350"/>	<image href="test/textures/Wall.jpg" width="70" height="70" x="210" y="350"/>	<image href="test/textures/Wall.jpg" width="70" height="70" x="280" y="350"/></svg>