<svg xmlns="http://www.w3.org/2000/svg" width='1470' height='420'>	<image href="test/textures/Wall.jpg" width="70" height="70" x="0" y="0"/>	<image href="test/textures/Wall.jpg" width="70" height="70" x="70" y="0"/>	<image href="test/textures/Wall.jpg" width="70" height="70" x="140" y="0"/>	<image href="test/textures/Wall.jpg" width="70" height="70" x="210" y="0"/>	<image href="test/textures/Wall.jpg" width="70" height="70" x="280" y="0"/>	<image href="test/textures/Wall.jpg" width="70" height="70" x="350" y="0"/>	<image href="test/textures/Wall.jpg" width="70" height="70" x="420" y="0"/>	<image href="test/textures/Wall.jpg" width="70" height="70" x="490" y="0"/>	<image href="test/textures/Wall.jpg" width="70" height="70" x="560" y="0"/>	<image href="test/textures/Wall.jpg" width="70" height="70" x="630" y="0"/>	<image href="test/textures/Wall.jpg" width="70" height="70" x="700" y="0"/>	<image href="test/textures/Wall.jpg" width="70" height="70" x="770" y="0"/>	<image href="test/textures/Wall.jpg" width="70" height="70" x="840" y="0"/>	<image href="test/textures/Wall.jpg" width="70" height="70" x="910" y="0"/>	<image href="test/textures/Wall.jpg" width="70" height="70" x="980" y="0"/>	<image href="test/textures/Wall.jpg" width="70" height="70" x="1050" y="0"/>	<image href="test/textures/Wall.jpg" width="70" height="70" x="1120" y="0"/>	<image href="test/textures/Wall.jpg" width="70" height="70" x="1190" y="0"/>	<image href="test/textures/Wall.jpg" width="70" height="70" x="1260" y="0"/>	<image href="test/textures/Wall.jpg" width="70" height="70" x="1330" y="0"/>	<image href="test/textures/Wall.jpg" width="70" height="70" x="0" y="70"/>	<image href="test/textures/Free.jpg" width="70" height="70" x="70" y="70"/>	<image href="test/textures/Free.jpg" width="70" height="70" x="140" y="70"/>	<image href="test/textures/Free.jpg" width="70" height="70" x="210" y="70"/>	<image href="test/textures/Free.jpg" width="70" height="70" x="280" y="70"/>	<image href="test/textures/Monster2.jpg" width="70" height="70" x="350" y="70"/>	<image href="test/textures/Free.jpg" width="70" height="70" x="420" y="70"/>	<image href="test/textures/Free.jpg" width="70" height="70" x="490" y="70"/>	<image href="test/textures/Free.jpg" width="70" height="70" x="560" y="70"/>	<image href="test/textures/Free.jpg" width="70" height="70" x="630" y="70"/>	<image href="test/textures/Free.jpg" width="70" height="70" x="700" y="70"/>	<image href="test/textures/Free.jpg" width="70" height="70" x="770" y="70"/>	<image href="test/textures/Free.jpg" width="70" height="70" x="840" y="70"/>	<image href="test/textures/Monster1.jpg" width="70" height="70" x="910" y="70"/>	<image href="test/textures/Free.jpg" width="70" height="70" x="980" y="70"/>	<image href="test/textures/Wall.jpg" width="70" height="70" x="1050" y="70"/>	<image href="test/textures/Wall.jpg" width="70" height="70" x="1120" y="70"/>	<image href="test/textures/Monster3.jpg" width="70" height="70" x="1190" y="70"/>	<image href="test/textures/Wall.jpg" width="70" height="70" x="1260" y="70"/>	<image href="test/textures/Wall.jpg" width="70" height="70" x="1330" y="70"/>	<image href="test/textures/Wall.jpg" width="70" height="70" x="0" y="140"/>	<image href="test/textures/Free.jpg" width="70" height="70" x="70" y="140"/>	<image href="test/textures/Monster1.jpg" width="70" height="70" x="140" y="140"/>	<image href="test/textures/Free.jpg" width="70" height="70" x="210" y="140"/>	<image href="test/textures/Free.jpg" width="70" height="70" x="280" y="140"/>	<image href="test/textures/Wall.jpg" width="70" height="70" x="350" y="140"/>	<image href="test/textures/Wall.jpg" width="70" height="70" x="420" y="140"/>	<image href="test/textures/Wall.jpg" width="70" height="70" x="490" y="140"/>	<image href="test/textures/Wall.jpg" width="70" height="70" x="560" y="140"/>	<image href="test/textures/Monster1.jpg" width="70" height="70" x="630" y="140"/>	<image href="test/textures/Free.jpg" width="70" height="70" x="700" y="140"/>	<image href="test/textures/Wall.jpg" width="70" height="70" x="770" y="140"/>	<image href="test/textures/Wall.jpg" width="70" height="70" x="840" y="140"/>	<image href="test/textures/Wall.jpg" width="70" height="70" x="910" y="140"/>	<image href="test/textures/Wall.jpg" width="70" height="70" x="980" y="140"/>	<image href="test/textures/Wall.jpg" width="70" height="70" x="1050" y="140"/>	<image href="test/textures/Free.jpg" width="70" height="70" x="1120" y="140"/>	<image href="test/textures/Monster2.jpg" width="70" height="70" x="1190" y="140"/>	<image href="test/textures/Wall.jpg" width="70" height="70" x="1260" y="140"/>	<image href="test/textures/Wall.jpg" width="70" height="70" x="1330" y="140"/>	<image href="test/textures/Wall.jpg" width="70" height="70" x="0" y="210"/>	<image href="test/textures/Free.jpg" width="70" height="70" x="70" y="210"/>	<image href="test/textures/Free.jpg" width="70" height="70" x="140" y="210"/>	<image href="test/textures/Free.jpg" width="70" height="70" x="210" y="210"/>	<image href="test/textures/Monster1.jpg" width="70" height="70" x="280" y="210"/>	<image href="test/textures/Wall.jpg" width="70" height="70" x="350" y="210"/>	<image href="test/textures/Wall.jpg" width="70" height="70" x="420" y="210"/>	<image href="test/textures/Wall.jpg" width="70" height="70" x="490" y="210"/>	<image href="test/textures/Wall.jpg" width="70" height="70" x="560" y="210"/>	<image href="test/textures/Wall.jpg" width="70" height="70" x="630" y="210"/>	<image href="test/textures/Monster1.jpg" width="70" height="70" x="700" y="210"/>	<image href="test/textures/Free.jpg" width="70" height="70" x="770" y="210"/>	<image href="test/textures/Wall.jpg" width="70" height="70" x="840" y="210"/>	<image href="test/textures/Wall.jpg" width="70" height="70" x="910" y="210"/>	<image href="test/textures/Free.jpg" width="70" height="70" x="980" y="210"/>	<image href="test/textures/Free.jpg" width="70" height="70" x="1050" y="210"/>	<image href="test/textures/Free.jpg" width="70" height="70" x="1120" y="210"/>	<image href="test/textures/Monster1.jpg" width="70" height="70" x="1190" y="210"/>	<image href="test/textures/Wall.jpg" width="70" height="70" x="1260" y="210"/>	<image href="test/textures/Wall.jpg" width="70" height="70" x="1330" y="210"/>	<image href="test/textures/Wall.jpg" width="70" height="70" x="0" y="280"/>	<image href="test/textures/Free.jpg" width="70" height="70" x="70" y="280"/>	<image href="test/textures/Hero.jpg" width="70" height="70" x="140" y="280"/>	<image href="test/textures/Free.jpg" width="70" height="70" x="210" y="280"/>	<image href="test/textures/Free.jpg" width="70" height="70" x="280" y="280"/>	<image href="test/textures/Wall.jpg" width="70" height="70" x="350" y="280"/>	<image href="test/textures/Wall.jpg" width="70" height="70" x="420" y="280"/>	<image href="test/textures/Wall.jpg" width="70" height="70" x="490" y="280"/>	<image href="test/textures/Wall.jpg" width="70" height="70" x="560" y="280"/>	<image href="test/textures/Wall.jpg" width="70" height="70" x="630" y="280"/>	<image href="test/textures/Wall.jpg" width="70" height="70" x="700" y="280"/>	<image href="test/textures/Monster2.jpg" width="70" height="70" x="770" y="280"/>	<image href="test/textures/Free.jpg" width="70" height="70" x="840" y="280"/>	<image href="test/textures/Free.jpg" width="70" height="70" x="910" y="280"/>	<image href="test/textures/Monster2.jpg" width="70" height="70" x="980" y="280"/>	<image href="test/textures/Wall.jpg" width="70" height="70" x="1050" y="280"/>	<image href="test/textures/Wall.jpg" width="70" height="70" x="1120" y="280"/>	<image href="test/textures/Wall.jpg" width="70" height="70" x="1190" y="280"/>	<image href="test/textures/Wall.jpg" width="70" height="70" x="1260" y="280"/>	<image href="test/textures/Wall.jpg" width="70" height="70" x="1330" y="280"/>	<image href="test/textures/Wall.jpg" width="70" height="70" x="0" y="350"/>	<image href="test/textures/Wall.jpg" width="70" height="70" x="70" y="350"/>	<image href="test/textures/Wall.jpg" width="70" height="70" x="140" y="350"/>	<image href="test/textures/Wall.jpg" width="70" height="70" x="210" y="350"/>	<image href="test/textures/Wall.jpg" width="70" height="70" x="280" y="350"/>	<image href="test/textures/Wall.jpg" width="70" height="70" x="350" y="350"/>	<image href="test/textures/Wall.jpg" width="70" height="70" x="420" y="350"/>	<image href="test/textures/Wall.jpg" width="70" height="70" x="490" y="350"/>	<image href="test/textures/Wall.jpg" width="70" height="70" x="560" y="350"/>	<image href="test/textures/Wall.jpg" width="70" height="70" x="630" y="350"/>	<image href="test/textures/Wall.jpg" width="70" height="70" x="700" y="350"/>	<image href="test/textures/Wall.jpg" width="70" height="70" x="770" y="350"/>	<image href="test/textures/Wall.jpg" width="70" height="70" x="840" y="350"/>	<image href="test/textures/Wall.jpg" width="70" height="70" x="910" y="350"/>	<image href="test/textures/Wall.jpg" width="70" height="70" x="980" y="350"/>	<image href="test/textures/Wall.jpg" width="70" height="70" x="1050" y="350"/>	<image href="test/textures/Wall.jpg" width="70" height="70" x="1120" y="350"/>	<image href="test/textures/Wall.jpg" width="70" height="70" x="1190" y="350"/>	<image href="test/textures/Wall.jpg" width="70" height="70" x="1260" y="350"/>	<image href="test/textures/Wall.jpg" width="70" height="70" x="1330" y="350"/></svg>